<?xml version="1.0" encoding="UTF-8" standalone="no"?>
<!-- Created with Inkscape (http://www.inkscape.org/) -->

<svg
   xmlns:dc="http://purl.org/dc/elements/1.1/"
   xmlns:cc="http://creativecommons.org/ns#"
   xmlns:rdf="http://www.w3.org/1999/02/22-rdf-syntax-ns#"
   xmlns:svg="http://www.w3.org/2000/svg"
   xmlns="http://www.w3.org/2000/svg"
   xmlns:sodipodi="http://sodipodi.sourceforge.net/DTD/sodipodi-0.dtd"
   xmlns:inkscape="http://www.inkscape.org/namespaces/inkscape"
   width="80"
   height="80"
   id="svg2"
   version="1.1"
   inkscape:version="0.48.5 r10040"
   sodipodi:docname="C:\Users\Thomas1\Dropbox\Transfer\ApeEscape\docs\Icons\Berlin.svg">
  <defs
     id="defs4">
    <linearGradient
       id="linearGradient5070">
      <stop
         style="stop-color:#ffffff;stop-opacity:0;"
         offset="0"
         id="stop5072" />
      <stop
         style="stop-color:#ffffff;stop-opacity:0.50196081;"
         offset="1"
         id="stop5074" />
    </linearGradient>
    <linearGradient
       id="linearGradient4976">
      <stop
         style="stop-color:#000000;stop-opacity:0.25098041;"
         offset="0"
         id="stop4978" />
      <stop
         style="stop-color:#000000;stop-opacity:0;"
         offset="1"
         id="stop4980" />
    </linearGradient>
    <linearGradient
       id="linearGradient4932">
      <stop
         style="stop-color:#ffffff;stop-opacity:0.50196081;"
         offset="0"
         id="stop4934" />
      <stop
         style="stop-color:#ffffff;stop-opacity:0.1254902;"
         offset="1"
         id="stop4936" />
    </linearGradient>
    <linearGradient
       id="linearGradient3992">
      <stop
         style="stop-color:#ebe9dd;stop-opacity:1;"
         offset="0"
         id="stop3994" />
      <stop
         style="stop-color:#d9d1cf;stop-opacity:1;"
         offset="1"
         id="stop3996" />
    </linearGradient>
  </defs>
  <sodipodi:namedview
     id="base"
     pagecolor="#ffffff"
     bordercolor="#666666"
     borderopacity="1.0"
     inkscape:pageopacity="0.0"
     inkscape:pageshadow="2"
     inkscape:zoom="2.3907681"
     inkscape:cx="216.20459"
     inkscape:cy="40.005365"
     inkscape:document-units="px"
     inkscape:current-layer="layer1"
     showgrid="false"
     inkscape:window-width="1600"
     inkscape:window-height="837"
     inkscape:window-x="-8"
     inkscape:window-y="-8"
     inkscape:window-maximized="1"
     showguides="false"
     inkscape:guide-bbox="true">
    <sodipodi:guide
       orientation="0,1"
       position="50,650"
       id="guide3085" />
    <sodipodi:guide
       orientation="0,1"
       position="18,150"
       id="guide3087" />
    <sodipodi:guide
       orientation="1,0"
       position="50,681"
       id="guide3089" />
    <sodipodi:guide
       orientation="1,0"
       position="950,673"
       id="guide3091" />
    <sodipodi:guide
       orientation="1,0"
       position="850,710"
       id="guide3889" />
    <sodipodi:guide
       orientation="1,0"
       position="150,675"
       id="guide3891" />
    <sodipodi:guide
       orientation="0,1"
       position="14,550"
       id="guide3893" />
    <sodipodi:guide
       orientation="0,1"
       position="16,250"
       id="guide3895" />
    <sodipodi:guide
       orientation="0,1"
       position="16,350"
       id="guide3897" />
    <sodipodi:guide
       orientation="1,0"
       position="250,703"
       id="guide3899" />
    <sodipodi:guide
       orientation="1,0"
       position="800,687"
       id="guide3901" />
    <sodipodi:guide
       orientation="1,0"
       position="402,700"
       id="guide3903" />
    <sodipodi:guide
       orientation="0,1"
       position="22,500"
       id="guide3905" />
    <sodipodi:guide
       orientation="1,0"
       position="650,708"
       id="guide3907" />
    <sodipodi:guide
       orientation="1,0"
       position="500,699"
       id="guide3918" />
    <sodipodi:guide
       orientation="0,1"
       position="18,300"
       id="guide3932" />
    <sodipodi:guide
       orientation="1,0"
       position="200,723"
       id="guide3936" />
    <sodipodi:guide
       orientation="0,1"
       position="20,200"
       id="guide3938" />
    <sodipodi:guide
       orientation="1,0"
       position="600,695"
       id="guide3940" />
    <sodipodi:guide
       orientation="1,0"
       position="550,704"
       id="guide3942" />
    <sodipodi:guide
       orientation="1,0"
       position="100,686"
       id="guide3946" />
    <sodipodi:guide
       orientation="1,0"
       position="300,694"
       id="guide3948" />
    <sodipodi:guide
       orientation="1,0"
       position="350,705"
       id="guide3950" />
    <sodipodi:guide
       orientation="1,0"
       position="450,702"
       id="guide3952" />
    <sodipodi:guide
       orientation="0,1"
       position="21,400"
       id="guide3954" />
    <sodipodi:guide
       orientation="1,0"
       position="750,697"
       id="guide3956" />
    <sodipodi:guide
       orientation="0,1"
       position="10,450"
       id="guide3958" />
    <sodipodi:guide
       orientation="1,0"
       position="700,697"
       id="guide3960" />
    <sodipodi:guide
       orientation="0,1"
       position="246,600"
       id="guide3962" />
    <sodipodi:guide
       orientation="1,0"
       position="900,600"
       id="guide3964" />
    <sodipodi:guide
       orientation="1,0"
       position="0,624"
       id="guide3982" />
    <sodipodi:guide
       orientation="1,0"
       position="1000,670"
       id="guide3984" />
    <sodipodi:guide
       orientation="0,1"
       position="0,700"
       id="guide3986" />
    <sodipodi:guide
       orientation="0,1"
       position="0,100"
       id="guide3988" />
    <sodipodi:guide
       orientation="0,1"
       position="226.51717,350"
       id="guide3272" />
    <inkscape:grid
       type="xygrid"
       id="grid3274"
       empspacing="5"
       visible="true"
       enabled="true"
       snapvisiblegridlinesonly="true" />
  </sodipodi:namedview>
  <metadata
     id="metadata7">
    <rdf:RDF>
      <cc:Work
         rdf:about="">
        <dc:format>image/svg+xml</dc:format>
        <dc:type
           rdf:resource="http://purl.org/dc/dcmitype/StillImage" />
        <dc:title></dc:title>
      </cc:Work>
    </rdf:RDF>
  </metadata>
  <g
     inkscape:label="Ebene 1"
     inkscape:groupmode="layer"
     id="layer1"
     transform="translate(0,-972.36218)">
    <g
       id="g4314"
       inkscape:export-xdpi="377.97"
       inkscape:export-ydpi="377.97"
       transform="translate(-563.76532,795.41844)">
      <rect
         style="fill:#aad400;fill-opacity:1;stroke:none"
         id="rect4100"
         width="80"
         height="80"
         x="563.76532"
         y="176.94374" />
      <path
         inkscape:connector-curvature="0"
         style="font-size:medium;font-style:normal;font-variant:normal;font-weight:normal;font-stretch:normal;text-indent:0;text-align:start;text-decoration:none;line-height:normal;letter-spacing:normal;word-spacing:normal;text-transform:none;direction:ltr;block-progression:tb;writing-mode:lr-tb;text-anchor:start;baseline-shift:baseline;color:#000000;fill:#88aa00;fill-opacity:1;fill-rule:nonzero;stroke:none;stroke-width:1;marker:none;visibility:visible;display:inline;overflow:visible;enable-background:accumulate;font-family:Sans;-inkscape-font-specification:Sans"
         d="m 574.7102,176.93311 0.1875,0.28125 26.78125,37.5 -37.625,-26.6875 -0.28125,-0.1875 0,11.34375 37.21875,16.90625 -37.1875,-3.46875 -0.0312,0 0,8.59375 0.0625,0 36.9375,-3.59375 -37,17 0,11.34375 0.28125,-0.1875 37.6562,-26.9375 -26.8125,37.8125 -0.1875,0.28125 11.3125,0 16.84375,-36.96875 -3.46875,36.9375 0,0.0312 8.625,0 0,-0.0625 -3.65625,-37.59375 17.125,37.65625 11.34375,0 -0.1875,-0.28125 -26.78125,-37.78125 37.625,26.90625 0.28125,0.1875 0,-11.34375 -36.9375,-17 36.875,3.59375 0.0625,0 0,-8.59375 -0.0312,0 -37.25,3.46875 37.2812,-16.90625 0,-11.34375 -0.28125,0.1875 -37.59375,26.625 26.75,-37.4375 0.1875,-0.28125 -11.375,0 -17.0625,37.25 3.625,-37.1875 0,-0.0625 -8.625,0 0,0.0312 3.40625,36.375 -16.71875,-36.40625 -11.375,0 z m 1.5625,0.5 8.90625,0 16.03125,34.90625 -24.9375,-34.90625 z m 24.1875,0 6.5,0 -3.3125,34.15625 -3.1875,-34.15625 z m 21.90625,0 8.90625,0 -24.8125,34.71875 15.90625,-34.71875 z m -58.09375,11.96875 34.875,24.71875 -34.875,-15.84375 0,-8.875 z m 79,0 0,8.875 -34.875,15.8125 34.875,-24.6875 z m -79,24.28125 34.0625,3.15625 -34.0625,3.3125 0,-6.46875 z m 79,0 0,6.46875 -34.09375,-3.3125 34.09375,-3.15625 z m -34.8125,5.84375 34.8125,16 0,8.875 -34.8125,-24.875 z m -9.40625,0.0312 -34.78125,24.84375 0,-8.875 34.78125,-15.96875 z m 7.46875,1.96875 24.75,34.90625 -8.875,0 -15.875,-34.90625 z m -5.53125,0.0937 -15.875,34.8125 -8.84375,0 24.71875,-34.8125 z m 2.65625,0.65625 3.3125,34.15625 -6.5,0 3.1875,-34.15625 z"
         id="path4102" />
      <path
         inkscape:connector-curvature="0"
         style="fill:#ddff55;fill-opacity:1;stroke:none"
         d="m 575.30395,176.93311 28.3125,39.625 0,0.125 -39.84375,-28.25 0,10.1875 39.84375,18.09375 0.0312,0.125 0.0312,-0.0937 0,-0.0312 0,-0.0625 0.0937,0.125 -0.0312,0 0,0.0312 0.0312,0 0.0937,0.0937 -0.0625,-0.15625 -0.125,-0.25 3.84395,-39.5625 -7.625,0 3.6875,39.34375 -18.0625,-39.34375 -10.21875,0 z m 28.5,39.8125 28.4375,-39.8125 -10.21875,0 -18.21875,39.8125 z m 0,0 39.96875,-18.125 0,-10.1875 -39.96875,28.3125 z m 0.0625,0.15625 18.1875,40.03125 10.1875,0 -28.375,-40.03125 z m -0.21875,-0.0625 -39.875,-3.71875 0,7.59375 39.875,-3.875 z m 40.125,-3.71875 -39.90625,3.71875 39.90625,3.875 0,-7.59375 z m -39.90625,3.71875 39.90625,28.53125 0,-10.1875 -39.90625,-18.34375 z m -0.21875,0.0312 -39.875,18.3125 0,10.1875 39.875,-28.5 z m 0,0.125 -3.75,39.9375 7.625,0 -3.875,-39.9375 z m 0,0 -28.34375,39.9375 10.15625,0 18.1875,-39.9375 z"
         id="path4105" />
      <g
         transform="translate(30.732286,-174.33333)"
         id="g4290">
        <path
           inkscape:connector-curvature="0"
           id="path4292"
           d="m 571.5915,355.90608 c -7.09544,0 -12.84027,5.76205 -12.84027,12.8575 0,3.82143 1.65485,7.25102 4.30304,9.60438 l -0.53358,3.1154 c -4.87428,8.00888 -10.3935,15.01215 -10.13796,30.91304 l 0,0.25819 0.0172,0 c 0.19877,7.76078 9.35462,13.99348 20.63738,13.99348 11.28275,0 20.43862,-6.2327 20.63738,-13.99348 l 0.0172,0 0,-0.25819 c -1.19642,-8.714 -1.9796,-16.26975 -12.2895,-30.91304 l -1.11879,-3.2531 c 2.55967,-2.3485 4.16534,-5.71905 4.16534,-9.46668 0,-7.09545 -5.76206,-12.8575 -12.85749,-12.8575 z"
           style="fill:#e1cc41;fill-opacity:1;fill-rule:nonzero;stroke:#000000;stroke-width:3;stroke-linejoin:round;stroke-miterlimit:4;stroke-opacity:1;stroke-dasharray:none" />
        <g
           id="g4294">
          <path
             transform="matrix(1.098195,0,0,0.97245987,107.7652,280.07504)"
             d="m 433.3153,91.179329 c 0,6.669178 -4.88154,12.075611 -10.90322,12.075611 -6.02169,0 -10.90323,-5.406433 -10.90323,-12.075611 0,-6.669179 4.88154,-12.075616 10.90323,-12.075616 6.02168,0 10.90322,5.406437 10.90322,12.075616 z"
             sodipodi:ry="12.075616"
             sodipodi:rx="10.903226"
             sodipodi:cy="91.179329"
             sodipodi:cx="422.41208"
             id="path4296"
             style="fill:#ffe4b5;fill-opacity:1;fill-rule:nonzero;stroke:#000000;stroke-width:0.88725603;stroke-linejoin:round;stroke-miterlimit:4;stroke-opacity:1;stroke-dasharray:none"
             sodipodi:type="arc" />
          <g
             id="g4298"
             transform="translate(66.936486,2.1538769)">
            <path
               sodipodi:type="arc"
               style="fill:#ffffff;fill-opacity:1;fill-rule:nonzero;stroke:#000000;stroke-width:1;stroke-linecap:round;stroke-linejoin:round;stroke-miterlimit:4;stroke-opacity:0.71382638;stroke-dasharray:none;stroke-dashoffset:0"
               id="path4300"
               sodipodi:cx="510.25607"
               sodipodi:cy="82.247246"
               sodipodi:rx="3.0775397"
               sodipodi:ry="3.3083551"
               d="m 513.33361,82.247246 c 0,1.827154 -1.37786,3.308355 -3.07754,3.308355 -1.69968,0 -3.07754,-1.481201 -3.07754,-3.308355 0,-1.827154 1.37786,-3.308355 3.07754,-3.308355 1.69968,0 3.07754,1.481201 3.07754,3.308355 z"
               transform="translate(0,284.36218)" />
            <path
               transform="matrix(1.4769768,0,0,1.2497496,-238.11507,263.57132)"
               d="m 506.7169,82.862755 c 0,0.552395 -0.37891,1.0002 -0.84633,1.0002 -0.46741,0 -0.84632,-0.447805 -0.84632,-1.0002 0,-0.552396 0.37891,-1.000201 0.84632,-1.000201 0.46742,0 0.84633,0.447805 0.84633,1.000201 z"
               sodipodi:ry="1.0002004"
               sodipodi:rx="0.84632337"
               sodipodi:cy="82.862755"
               sodipodi:cx="505.87057"
               id="path4302"
               style="fill:#000000;fill-opacity:1;fill-rule:nonzero;stroke:none"
               sodipodi:type="arc" />
          </g>
          <g
             id="g4304"
             transform="translate(66.936486,2.1538769)">
            <path
               sodipodi:type="arc"
               style="fill:#ffffff;fill-opacity:1;fill-rule:nonzero;stroke:#000000;stroke-width:1;stroke-linecap:round;stroke-linejoin:round;stroke-miterlimit:4;stroke-opacity:0.71382638;stroke-dasharray:none;stroke-dashoffset:0"
               id="path4306"
               sodipodi:cx="505.17813"
               sodipodi:cy="82.785812"
               sodipodi:rx="4.0008016"
               sodipodi:ry="4.4624324"
               d="m 509.17893,82.785812 c 0,2.464534 -1.79122,4.462433 -4.0008,4.462433 -2.20958,0 -4.0008,-1.997899 -4.0008,-4.462433 0,-2.464533 1.79122,-4.462432 4.0008,-4.462432 2.20958,0 4.0008,1.997899 4.0008,4.462432 z"
               transform="translate(-1.2310158,284.2083)" />
            <path
               sodipodi:type="arc"
               style="fill:#000000;fill-opacity:1;fill-rule:nonzero;stroke:none"
               id="path4308"
               sodipodi:cx="505.87057"
               sodipodi:cy="82.862755"
               sodipodi:rx="0.84632337"
               sodipodi:ry="1.0002004"
               d="m 506.7169,82.862755 c 0,0.552395 -0.37891,1.0002 -0.84633,1.0002 -0.46741,0 -0.84632,-0.447805 -0.84632,-1.0002 0,-0.552396 0.37891,-1.000201 0.84632,-1.000201 0.46742,0 0.84633,0.447805 0.84633,1.000201 z"
               transform="matrix(1.7723722,0,0,1.4996995,-390.37443,242.91754)" />
          </g>
          <path
             sodipodi:type="arc"
             style="fill:#000000;fill-opacity:0.82999998;fill-rule:nonzero;stroke:none"
             id="path4310"
             sodipodi:cx="573.96112"
             sodipodi:cy="91.710678"
             sodipodi:rx="1.8465238"
             sodipodi:ry="0.76938492"
             d="m 575.80764,91.710678 c 0,0.42492 -0.82671,0.769385 -1.84652,0.769385 -1.01981,0 -1.84652,-0.344465 -1.84652,-0.769385 0,-0.424919 0.82671,-0.769385 1.84652,-0.769385 1.01981,0 1.84652,0.344466 1.84652,0.769385 z"
             transform="matrix(1.5564422,-0.41928716,0.45984117,2.0436156,-361.06068,429.50275)" />
        </g>
        <path
           sodipodi:nodetypes="cccc"
           transform="translate(0,284.36218)"
           inkscape:connector-curvature="0"
           id="path4312"
           d="m 579.96234,75.86135 12.6179,3.693048 c -6.57209,4.11598 -18.40985,2.549852 -31.54477,-1.384893 4.98125,-7.440308 15.80422,-6.669883 18.92687,-2.308155 z"
           style="fill:#e1cc41;fill-opacity:1;stroke:#000000;stroke-width:1px;stroke-linecap:round;stroke-linejoin:round;stroke-opacity:1" />
      </g>
    </g>
    <g
       transform="translate(-548.52844,706.09555)"
       id="g4093" />
    <g
       transform="translate(-548.52844,706.09555)"
       id="g4099" />
  </g>
</svg>
