<?xml version="1.0" encoding="UTF-8" standalone="no"?>
<!-- Created with Inkscape (http://www.inkscape.org/) -->

<svg
   xmlns:dc="http://purl.org/dc/elements/1.1/"
   xmlns:cc="http://creativecommons.org/ns#"
   xmlns:rdf="http://www.w3.org/1999/02/22-rdf-syntax-ns#"
   xmlns:svg="http://www.w3.org/2000/svg"
   xmlns="http://www.w3.org/2000/svg"
   xmlns:xlink="http://www.w3.org/1999/xlink"
   xmlns:sodipodi="http://sodipodi.sourceforge.net/DTD/sodipodi-0.dtd"
   xmlns:inkscape="http://www.inkscape.org/namespaces/inkscape"
   width="80"
   height="80"
   id="svg2"
   version="1.1"
   inkscape:version="0.48.5 r10040"
   sodipodi:docname="C:\Users\Thomas1\Dropbox\Transfer\ApeEscape\docs\Icons\Berlin.svg">
  <defs
     id="defs4">
    <linearGradient
       id="linearGradient5070">
      <stop
         style="stop-color:#ffffff;stop-opacity:0;"
         offset="0"
         id="stop5072" />
      <stop
         style="stop-color:#ffffff;stop-opacity:0.50196081;"
         offset="1"
         id="stop5074" />
    </linearGradient>
    <linearGradient
       id="linearGradient4976">
      <stop
         style="stop-color:#000000;stop-opacity:0.25098041;"
         offset="0"
         id="stop4978" />
      <stop
         style="stop-color:#000000;stop-opacity:0;"
         offset="1"
         id="stop4980" />
    </linearGradient>
    <linearGradient
       id="linearGradient4932">
      <stop
         style="stop-color:#ffffff;stop-opacity:0.50196081;"
         offset="0"
         id="stop4934" />
      <stop
         style="stop-color:#ffffff;stop-opacity:0.1254902;"
         offset="1"
         id="stop4936" />
    </linearGradient>
    <linearGradient
       id="linearGradient3992">
      <stop
         style="stop-color:#ebe9dd;stop-opacity:1;"
         offset="0"
         id="stop3994" />
      <stop
         style="stop-color:#d9d1cf;stop-opacity:1;"
         offset="1"
         id="stop3996" />
    </linearGradient>
    <linearGradient
       inkscape:collect="always"
       xlink:href="#linearGradient3992"
       id="linearGradient3998"
       x1="471"
       y1="352.36218"
       x2="471"
       y2="952.36218"
       gradientUnits="userSpaceOnUse"
       gradientTransform="translate(8.3478261,0)" />
    <linearGradient
       inkscape:collect="always"
       xlink:href="#linearGradient4932"
       id="linearGradient4938"
       x1="161.57262"
       y1="200.52301"
       x2="161.57262"
       y2="142.9353"
       gradientUnits="userSpaceOnUse"
       gradientTransform="matrix(1.0003831,0,0,0.99934836,0.41368527,12.08604)" />
    <linearGradient
       inkscape:collect="always"
       xlink:href="#linearGradient4976"
       id="linearGradient4982"
       x1="174.08807"
       y1="211.55432"
       x2="174.08807"
       y2="166.51256"
       gradientUnits="userSpaceOnUse" />
    <linearGradient
       inkscape:collect="always"
       xlink:href="#linearGradient5070"
       id="linearGradient5076"
       x1="223.66663"
       y1="172.21709"
       x2="223.66663"
       y2="114.22546"
       gradientUnits="userSpaceOnUse"
       gradientTransform="translate(-62.035836,40.552802)" />
  </defs>
  <sodipodi:namedview
     id="base"
     pagecolor="#ffffff"
     bordercolor="#666666"
     borderopacity="1.0"
     inkscape:pageopacity="0.0"
     inkscape:pageshadow="2"
     inkscape:zoom="2.3907681"
     inkscape:cx="216.20459"
     inkscape:cy="40.005365"
     inkscape:document-units="px"
     inkscape:current-layer="layer1"
     showgrid="false"
     inkscape:window-width="1600"
     inkscape:window-height="837"
     inkscape:window-x="-8"
     inkscape:window-y="-8"
     inkscape:window-maximized="1"
     showguides="false"
     inkscape:guide-bbox="true">
    <sodipodi:guide
       orientation="0,1"
       position="50,650"
       id="guide3085" />
    <sodipodi:guide
       orientation="0,1"
       position="18,150"
       id="guide3087" />
    <sodipodi:guide
       orientation="1,0"
       position="50,681"
       id="guide3089" />
    <sodipodi:guide
       orientation="1,0"
       position="950,673"
       id="guide3091" />
    <sodipodi:guide
       orientation="1,0"
       position="850,710"
       id="guide3889" />
    <sodipodi:guide
       orientation="1,0"
       position="150,675"
       id="guide3891" />
    <sodipodi:guide
       orientation="0,1"
       position="14,550"
       id="guide3893" />
    <sodipodi:guide
       orientation="0,1"
       position="16,250"
       id="guide3895" />
    <sodipodi:guide
       orientation="0,1"
       position="16,350"
       id="guide3897" />
    <sodipodi:guide
       orientation="1,0"
       position="250,703"
       id="guide3899" />
    <sodipodi:guide
       orientation="1,0"
       position="800,687"
       id="guide3901" />
    <sodipodi:guide
       orientation="1,0"
       position="402,700"
       id="guide3903" />
    <sodipodi:guide
       orientation="0,1"
       position="22,500"
       id="guide3905" />
    <sodipodi:guide
       orientation="1,0"
       position="650,708"
       id="guide3907" />
    <sodipodi:guide
       orientation="1,0"
       position="500,699"
       id="guide3918" />
    <sodipodi:guide
       orientation="0,1"
       position="18,300"
       id="guide3932" />
    <sodipodi:guide
       orientation="1,0"
       position="200,723"
       id="guide3936" />
    <sodipodi:guide
       orientation="0,1"
       position="20,200"
       id="guide3938" />
    <sodipodi:guide
       orientation="1,0"
       position="600,695"
       id="guide3940" />
    <sodipodi:guide
       orientation="1,0"
       position="550,704"
       id="guide3942" />
    <sodipodi:guide
       orientation="1,0"
       position="100,686"
       id="guide3946" />
    <sodipodi:guide
       orientation="1,0"
       position="300,694"
       id="guide3948" />
    <sodipodi:guide
       orientation="1,0"
       position="350,705"
       id="guide3950" />
    <sodipodi:guide
       orientation="1,0"
       position="450,702"
       id="guide3952" />
    <sodipodi:guide
       orientation="0,1"
       position="21,400"
       id="guide3954" />
    <sodipodi:guide
       orientation="1,0"
       position="750,697"
       id="guide3956" />
    <sodipodi:guide
       orientation="0,1"
       position="10,450"
       id="guide3958" />
    <sodipodi:guide
       orientation="1,0"
       position="700,697"
       id="guide3960" />
    <sodipodi:guide
       orientation="0,1"
       position="246,600"
       id="guide3962" />
    <sodipodi:guide
       orientation="1,0"
       position="900,600"
       id="guide3964" />
    <sodipodi:guide
       orientation="1,0"
       position="0,624"
       id="guide3982" />
    <sodipodi:guide
       orientation="1,0"
       position="1000,670"
       id="guide3984" />
    <sodipodi:guide
       orientation="0,1"
       position="0,700"
       id="guide3986" />
    <sodipodi:guide
       orientation="0,1"
       position="0,100"
       id="guide3988" />
    <sodipodi:guide
       orientation="0,1"
       position="226.51717,350"
       id="guide3272" />
    <inkscape:grid
       type="xygrid"
       id="grid3274"
       empspacing="5"
       visible="true"
       enabled="true"
       snapvisiblegridlinesonly="true" />
  </sodipodi:namedview>
  <metadata
     id="metadata7">
    <rdf:RDF>
      <cc:Work
         rdf:about="">
        <dc:format>image/svg+xml</dc:format>
        <dc:type
           rdf:resource="http://purl.org/dc/dcmitype/StillImage" />
        <dc:title></dc:title>
      </cc:Work>
    </rdf:RDF>
  </metadata>
  <g
     inkscape:label="Ebene 1"
     inkscape:groupmode="layer"
     id="layer1"
     transform="translate(0,-972.36218)">
    <g
       id="g4232"
       inkscape:export-xdpi="377.97"
       inkscape:export-ydpi="377.97"
       transform="translate(-299.46396,795.41844)">
      <rect
         y="176.94374"
         x="299.46396"
         height="80"
         width="80"
         id="rect4066"
         style="fill:#55d400;fill-opacity:1;stroke:none" />
      <path
         id="path4068"
         d="m 310.40881,176.93311 0.1875,0.28125 26.78125,37.5 -37.625,-26.6875 -0.28125,-0.1875 0,11.34375 37.21875,16.90625 -37.1875,-3.46875 -0.0312,0 0,8.59375 0.0625,0 36.9375,-3.59375 -37,17 0,11.34375 0.28125,-0.1875 37.6562,-26.9375 -26.8125,37.8125 -0.1875,0.28125 11.3125,0 16.84375,-36.96875 -3.46875,36.9375 0,0.0312 8.625,0 0,-0.0625 -3.65625,-37.59375 17.125,37.65625 11.34375,0 -0.1875,-0.28125 -26.78125,-37.78125 37.625,26.90625 0.28125,0.1875 0,-11.34375 -36.9375,-17 36.875,3.59375 0.0625,0 0,-8.59375 -0.0312,0 -37.25,3.46875 37.2812,-16.90625 0,-11.34375 -0.28125,0.1875 -37.59375,26.625 26.75,-37.4375 0.1875,-0.28125 -11.375,0 -17.0625,37.25 3.625,-37.1875 0,-0.0625 -8.625,0 0,0.0312 3.40625,36.375 -16.71875,-36.40625 -11.375,0 z m 1.5625,0.5 8.90625,0 16.03125,34.90625 -24.9375,-34.90625 z m 24.1875,0 6.5,0 -3.3125,34.15625 -3.1875,-34.15625 z m 21.90625,0 8.90625,0 -24.8125,34.71875 15.90625,-34.71875 z m -58.09375,11.96875 34.875,24.71875 -34.875,-15.84375 0,-8.875 z m 79,0 0,8.875 -34.875,15.8125 34.875,-24.6875 z m -79,24.28125 34.0625,3.15625 -34.0625,3.3125 0,-6.46875 z m 79,0 0,6.46875 -34.09375,-3.3125 34.09375,-3.15625 z m -34.8125,5.84375 34.8125,16 0,8.875 -34.8125,-24.875 z m -9.40625,0.0312 -34.78125,24.84375 0,-8.875 34.78125,-15.96875 z m 7.46875,1.96875 24.75,34.90625 -8.875,0 -15.875,-34.90625 z m -5.53125,0.0937 -15.875,34.8125 -8.84375,0 24.71875,-34.8125 z m 2.65625,0.65625 3.3125,34.15625 -6.5,0 3.1875,-34.15625 z"
         style="font-size:medium;font-style:normal;font-variant:normal;font-weight:normal;font-stretch:normal;text-indent:0;text-align:start;text-decoration:none;line-height:normal;letter-spacing:normal;word-spacing:normal;text-transform:none;direction:ltr;block-progression:tb;writing-mode:lr-tb;text-anchor:start;baseline-shift:baseline;color:#000000;fill:#44aa00;fill-opacity:1;fill-rule:nonzero;stroke:none;stroke-width:1;marker:none;visibility:visible;display:inline;overflow:visible;enable-background:accumulate;font-family:Sans;-inkscape-font-specification:Sans"
         inkscape:connector-curvature="0" />
      <path
         id="path4070"
         d="m 311.00256,176.93311 28.3125,39.625 0,0.125 -39.84375,-28.25 0,10.1875 39.84375,18.09375 0.0312,0.125 0.0312,-0.0937 0,-0.0312 0,-0.0625 0.0937,0.125 -0.0312,0 0,0.0312 0.0312,0 0.0937,0.0937 -0.0625,-0.15625 -0.125,-0.25 3.84395,-39.5625 -7.625,0 3.6875,39.34375 -18.0625,-39.34375 -10.21875,0 z m 28.5,39.8125 28.4375,-39.8125 -10.21875,0 -18.21875,39.8125 z m 0,0 39.96875,-18.125 0,-10.1875 -39.96875,28.3125 z m 0.0625,0.15625 18.1875,40.03125 10.1875,0 -28.375,-40.03125 z m -0.21875,-0.0625 -39.875,-3.71875 0,7.59375 39.875,-3.875 z m 40.125,-3.71875 -39.90625,3.71875 39.90625,3.875 0,-7.59375 z m -39.90625,3.71875 39.90625,28.53125 0,-10.1875 -39.90625,-18.34375 z m -0.21875,0.0312 -39.875,18.3125 0,10.1875 39.875,-28.5 z m 0,0.125 -3.75,39.9375 7.625,0 -3.875,-39.9375 z m 0,0 -28.34375,39.9375 10.15625,0 18.1875,-39.9375 z"
         style="fill:#7fff2a;fill-opacity:1;stroke:none"
         inkscape:connector-curvature="0" />
      <g
         id="g4224"
         transform="translate(-110.15238,-174.65171)">
        <path
           transform="matrix(1.1874522,0,0,1.0084516,-53.270545,276.48558)"
           d="m 433.3153,91.179329 c 0,6.669178 -4.88154,12.075611 -10.90322,12.075611 -6.02169,0 -10.90323,-5.406433 -10.90323,-12.075611 0,-6.669179 4.88154,-12.075616 10.90323,-12.075616 6.02168,0 10.90322,5.406437 10.90322,12.075616 z"
           sodipodi:ry="12.075616"
           sodipodi:rx="10.903226"
           sodipodi:cy="91.179329"
           sodipodi:cx="422.41208"
           id="path4226"
           style="fill:#ffffff;fill-opacity:0.50160774;fill-rule:nonzero;stroke:#000000;stroke-width:0.88725603;stroke-linejoin:round;stroke-miterlimit:4;stroke-opacity:1;stroke-dasharray:none"
           sodipodi:type="arc" />
        <path
           transform="matrix(0.88105738,0,0,0.85047409,53.386995,291.05103)"
           d="m 473.17656,142.88171 c 0,9.1944 -10.49794,16.64794 -23.4478,16.64794 -12.94986,0 -23.4478,-7.45354 -23.4478,-16.64794 0,-9.1944 10.49794,-16.64793 23.4478,-16.64793 12.94986,0 23.4478,7.45353 23.4478,16.64793 z"
           sodipodi:ry="16.647936"
           sodipodi:rx="23.447798"
           sodipodi:cy="142.88171"
           sodipodi:cx="449.72876"
           id="path4228"
           style="fill:#ffffff;fill-opacity:0.50160774;fill-rule:nonzero;stroke:#000000;stroke-width:1.15522707;stroke-linejoin:round;stroke-miterlimit:4;stroke-opacity:1;stroke-dasharray:none"
           sodipodi:type="arc" />
        <path
           inkscape:connector-curvature="0"
           id="path4230"
           d="m 448.18216,356.21383 c -7.09544,0 -12.84027,5.76205 -12.84027,12.8575 0,3.82143 1.65485,7.25102 4.30304,9.60438 l -0.53358,3.1154 c -4.87428,8.00888 -10.3935,15.01215 -10.13796,30.91304 l 0,0.25819 0.0172,0 c 0.19877,7.76078 9.35462,13.99348 20.63738,13.99348 11.28275,0 20.43862,-6.2327 20.63738,-13.99348 l 0.0172,0 0,-0.25819 c -1.19642,-8.714 -1.9796,-16.26975 -12.2895,-30.91304 l -1.11879,-3.2531 c 2.55967,-2.3485 4.16534,-5.71905 4.16534,-9.46668 0,-7.09545 -5.76206,-12.8575 -12.85749,-12.8575 z"
           style="fill:#ffffff;fill-opacity:0.50160774;fill-rule:nonzero;stroke:#000000;stroke-width:3;stroke-linejoin:round;stroke-miterlimit:4;stroke-opacity:1;stroke-dasharray:none" />
      </g>
    </g>
    <g
       transform="translate(-548.52844,706.09555)"
       id="g4093" />
    <g
       transform="translate(-548.52844,706.09555)"
       id="g4099" />
  </g>
</svg>
